<svg width="200" height="154" viewBox="0 0 200 154" fill="none" xmlns="http://www.w3.org/2000/svg">
<g opacity="0.5">
<path opacity="0.5" d="M200 38.2222H110.372V125.991H200V38.2222Z" fill="url(#paint0_linear)"/>
</g>
<path d="M199.55 38.8975H110.821V125.316H199.55V38.8975Z" fill="white"/>
<path d="M190.542 42.0732H119.83V96.9318H190.542V42.0732Z" fill="#F2F2F2"/>
<path d="M124.056 100.359V46.5H193.767V100.359H124.056Z" stroke="#46455B"/>
<g opacity="0.5">
<path opacity="0.5" d="M168.579 83.8504C168.541 81.6865 167.656 79.6236 166.115 78.1033C164.726 76.7404 162.859 75.1764 160.836 74.2301H160.824C159.967 73.8133 159.049 73.5361 158.104 73.4091V70.0511C158.795 69.4333 159.365 68.6937 159.787 67.8693V68.1382C159.787 68.1382 163.009 64.8849 162.935 61.0671C162.982 58.7744 161.88 56.2518 158.18 54.0884C149.591 49.0802 146.301 56.3627 145.674 58.0478C145.634 58.1294 145.604 58.2155 145.584 58.3044L145.559 58.3824C145.549 58.4614 145.549 58.5415 145.559 58.6205V58.6451C145.556 58.6875 145.556 58.73 145.559 58.7724C145.559 59.3348 146.038 59.852 146.849 60.2748C146.211 61.2263 145.8 62.3109 145.646 63.4457C145.492 64.5805 145.6 65.7355 145.962 66.8222C146.323 67.9088 146.929 68.8985 147.732 69.7154C148.535 70.5322 149.515 71.1547 150.595 71.5351V73.6903L150.429 73.3763C150.429 73.3763 149.281 74.0639 147.8 75.1189C145.319 76.8861 141.901 79.6858 141.388 81.999C140.566 85.6936 141.388 101.33 141.388 101.33L168.922 101.74L168.579 83.8504ZM159.828 67.8426L159.838 67.8323L159.828 67.8426ZM145.631 58.8894V58.9017V58.8894ZM145.682 59.0105V59.0269V59.0105ZM145.748 59.1295L145.76 59.15L145.748 59.1295ZM145.828 59.2465L145.845 59.2691L145.828 59.2465ZM145.923 59.3614L145.945 59.3861L145.923 59.3614ZM146.032 59.4743L146.058 59.501L146.032 59.4743ZM146.964 60.0901L146.993 60.1045L146.964 60.0901ZM146.155 59.579L146.188 59.6078L146.155 59.579ZM146.29 59.6878L146.329 59.7165L146.29 59.6878ZM146.44 59.7925L146.486 59.8233L146.44 59.7925ZM146.603 59.8951L146.656 59.9259L146.603 59.8951ZM146.777 59.9936L146.837 60.0265L146.777 59.9936Z" fill="url(#paint1_linear)"/>
</g>
<path d="M158.024 70.1537H150.714V80.8681H158.024V70.1537Z" fill="#FDA57D"/>
<path opacity="0.05" d="M150.957 71.8574C151.721 72.1283 152.049 72.3438 152.906 72.3438C154.706 72.344 156.443 71.6771 157.78 70.4719V70.3959H150.957V71.8574Z" fill="black"/>
<path d="M153.15 72.1016C157.188 72.1016 160.46 68.8311 160.46 64.7966C160.46 60.7622 157.188 57.4916 153.15 57.4916C149.113 57.4916 145.841 60.7622 145.841 64.7966C145.841 68.8311 149.113 72.1016 153.15 72.1016Z" fill="#FDA57D"/>
<path d="M152.345 61.5043C155.954 61.5043 158.879 60.3933 158.879 59.0228C158.879 57.6522 155.954 56.5412 152.345 56.5412C148.737 56.5412 145.812 57.6522 145.812 59.0228C145.812 60.3933 148.737 61.5043 152.345 61.5043Z" fill="black"/>
<path d="M153.652 59.9382L159.661 63.5938V68.1094C159.661 68.1094 167.501 60.1907 158.094 54.7083C148.687 49.226 145.812 58.8873 145.812 58.8873C145.812 58.8873 148.424 60.983 153.652 59.9382Z" fill="black"/>
<path d="M159.939 66.0137C160.342 66.0137 160.67 65.4688 160.67 64.7966C160.67 64.1243 160.342 63.5794 159.939 63.5794C159.535 63.5794 159.207 64.1243 159.207 64.7966C159.207 65.4688 159.535 66.0137 159.939 66.0137Z" fill="#FDA57D"/>
<g opacity="0.05">
<path opacity="0.05" d="M159.661 63.5938L155.66 61.1615C154.574 61.3951 153.465 61.51 152.354 61.5043C148.841 61.5043 145.986 60.4513 145.828 59.1315V59.1541C145.826 59.1951 145.826 59.2363 145.828 59.2773C145.828 60.6484 148.753 61.7588 152.362 61.7588C153.477 61.7653 154.589 61.6504 155.679 61.416L159.678 63.8483L159.661 63.5938Z" fill="black"/>
<path opacity="0.05" d="M159.661 68.1176V68.3783C159.661 68.3783 162.793 65.2133 162.722 61.4982C162.648 65.0983 159.661 68.1176 159.661 68.1176Z" fill="black"/>
</g>
<path d="M150.55 73C150.55 73 142.552 77.7948 141.753 81.3908C140.954 84.9869 141.753 100.2 141.753 100.2L168.544 100.601L168.203 83.1909C168.165 81.0843 167.302 79.0766 165.8 77.5977C163.8 75.6334 160.775 73.234 157.747 73L154.149 79.7939L150.55 73Z" fill="#4D8AF0"/>
<path opacity="0.05" d="M146.857 81.6132C146.857 81.6132 144.766 92.5799 146.596 95.981L146.857 81.6132Z" fill="black"/>
<path opacity="0.05" d="M162.007 81.6132C162.007 81.6132 164.098 92.5799 162.268 95.981L162.007 81.6132Z" fill="black"/>
<path d="M150.515 73.5159L158.109 73.4091L153.13 86.0508L150.515 73.5159Z" fill="white"/>
<path d="M150.515 72.7338V73.5158H158.094L158.109 72.7338H150.515Z" fill="white"/>
<path d="M154.697 72.7338H153.652V73.7786H154.697V72.7338Z" fill="black"/>
<path d="M150.515 73.5158L148.948 75.084L152.345 80.8681L150.515 73.5158Z" fill="#4D8AF0"/>
<path d="M157.831 74.0392L159.14 75.3446L155.219 80.5663L157.831 74.0392Z" fill="#4D8AF0"/>
<path opacity="0.1" d="M150.515 73.5158L148.948 75.084L152.345 80.8681L150.515 73.5158Z" fill="white"/>
<path opacity="0.1" d="M157.831 74.0392L159.14 75.3446L155.219 80.5663L157.831 74.0392Z" fill="white"/>
<path d="M154.173 73.2551L149.994 90.866L152.606 94.7823L156.003 90.866L154.173 73.2551Z" fill="black"/>
<path d="M187.266 108.637H124.827V111.511H187.266V108.637Z" fill="#46455B"/>
<path d="M177.304 114.384H134.788V117.258H177.304V114.384Z" fill="#46455B"/>
<g opacity="0.5">
<path opacity="0.5" d="M89.6283 23.5058H0V111.275H89.6283V23.5058Z" fill="url(#paint2_linear)"/>
</g>
<path d="M89.1785 24.1811H0.449814V110.6H89.1785V24.1811Z" fill="white"/>
<path d="M80.17 27.3568H9.45822V82.2154H80.17V27.3568Z" fill="#F2F2F2"/>
<path d="M6.40266 85.803V31.9444H76.1145V85.803H6.40266Z" stroke="#46455B"/>
<g opacity="0.5">
<path opacity="0.5" d="M61.2372 75.9752H62.3792L62.0218 72.3217H61.9828C62.2005 70.0885 62.5271 60.1931 51.8817 56.2502L50.9307 55.6242L50.8588 55.6878V53.0174C51.5614 52.3928 52.1428 51.6441 52.5738 50.8089V51.0819C53.5104 50.0726 54.2862 48.9255 54.8742 47.6808C54.3228 48.7167 53.6378 49.6759 52.8367 50.5338V50.5092C54.1738 48.9841 59.6413 41.9049 50.9287 36.8248C41.1151 31.1044 39.2625 40.7021 39.2625 40.7021L40.045 41.7489C40.045 41.7489 38.1452 45.5502 38.1452 47.3442C38.1457 48.9198 38.6348 50.4565 39.5451 51.743C40.4554 53.0295 41.7422 54.0025 43.2286 54.5281V56.8064C42.52 57.065 32.6715 60.8725 32.6715 72.3196L31.2995 75.9731L31.7575 76.1784V86.3611H54.1451C54.1451 86.3611 55.5171 75.5134 55.0591 71.8598L56.4311 72.7732V75.9711H56.7351V76.0511H56.6467L56.7351 76.3467V86.1333H61.229V76.3508L61.2803 76.0552H61.229L61.2372 75.9752ZM35.8386 76.8126L35.8715 75.9752L35.8386 76.8126Z" fill="url(#paint3_linear)"/>
</g>
<path d="M50.6904 53.2698H43.3805V63.9841H50.6904V53.2698Z" fill="#FDA57D"/>
<path opacity="0.05" d="M43.6249 54.9734C44.389 55.2444 44.7176 55.4599 45.5741 55.4599C47.3746 55.4603 49.1112 54.7933 50.448 53.588V53.512H43.6249V54.9734Z" fill="black"/>
<path d="M45.8185 55.2178C49.8556 55.2178 53.1284 51.9472 53.1284 47.9127C53.1284 43.8783 49.8556 40.6077 45.8185 40.6077C41.7814 40.6077 38.5087 43.8783 38.5087 47.9127C38.5087 51.9472 41.7814 55.2178 45.8185 55.2178Z" fill="#FDA57D"/>
<path d="M46.3176 44.3597L52.3273 46.7099V51.2255C52.3273 51.2255 60.1733 43.3171 50.7602 37.8285C42.3022 32.9024 40.77 38.8363 39.7061 39.9776C39.6813 40.004 39.662 40.0352 39.6493 40.0692C39.6366 40.1031 39.6307 40.1393 39.6321 40.1755C39.6334 40.2118 39.6419 40.2474 39.6571 40.2804C39.6722 40.3133 39.6938 40.3429 39.7205 40.3675C40.7659 41.3507 41.6593 45.2916 46.3176 44.3597Z" fill="#4D4545"/>
<path d="M60.6395 75.3553H56.3325V86.0799H60.6395V75.3553Z" fill="#FDA57D"/>
<path d="M56.0408 72.2909V75.3553H61.7342L61.3871 71.8537L56.0408 72.2909Z" fill="white"/>
<path d="M32.386 75.3553V86.2995H35.8899L36.2966 76.1578L32.386 75.3553Z" fill="#FDA57D"/>
<path d="M45.9643 60.0351L43.4216 56.9706C43.4216 56.9706 33.2671 60.4723 33.2671 71.8537L36.3336 75.3553L35.8961 86.2995H53.8554C53.8554 86.2995 55.1699 74.9181 54.7324 71.4165L56.0469 72.2929H61.3029C61.3029 72.2929 63.3239 60.0351 50.6226 56.0963L45.9643 60.0351Z" fill="#235067"/>
<path d="M33.261 71.8537L31.9485 75.3553L36.2494 77.3258L36.3274 75.3553L33.261 71.8537Z" fill="white"/>
<path opacity="0.05" d="M41.6162 58.198L43.3374 62.0465L45.7959 60.0268L43.4216 57.2313L41.6162 58.198Z" fill="black"/>
<path d="M41.6162 57.9373L43.3374 61.7838L45.7959 59.7662L43.4216 56.9706L41.6162 57.9373Z" fill="white"/>
<path opacity="0.05" d="M50.7602 56.1106L52.3273 57.1553L47.8868 61.3323L46.332 59.9837L50.7602 56.1106Z" fill="black"/>
<path d="M50.7602 55.8499L52.3273 56.8926L47.8868 61.0716L46.332 59.7231L50.7602 55.8499Z" fill="white"/>
<path opacity="0.05" d="M36.6499 74.3886C36.6451 70.9976 37.7461 67.6975 39.7862 64.9879L36.6499 74.3886Z" fill="black"/>
<path opacity="0.05" d="M54.1573 71.7777V70.2096L55.7245 71.2543L54.679 70.9936L54.1573 71.7777Z" fill="black"/>
<path opacity="0.05" d="M56.2482 75.4333L56.3324 75.7145H60.6394L60.6887 75.4333H56.2482Z" fill="black"/>
<path opacity="0.05" d="M32.386 75.5565V75.8561L36.2267 77.5043L36.1282 77.2601L32.386 75.5565Z" fill="black"/>
<path opacity="0.05" d="M54.5414 48.237C54.0133 49.2296 53.3573 50.1488 52.5902 50.971V46.4493L46.5805 44.0991C42.0763 45.0001 41.3656 41.3794 40.1025 40.2198C40.0484 40.1705 39.977 40.1446 39.904 40.1476C39.8309 40.1507 39.7619 40.1825 39.7122 40.2362C39.6874 40.2627 39.6681 40.2938 39.6554 40.3278C39.6427 40.3618 39.6369 40.3979 39.6382 40.4342C39.6395 40.4704 39.648 40.506 39.6632 40.539C39.6784 40.5719 39.6999 40.6016 39.7266 40.6262C40.7741 41.6073 41.6655 45.5523 46.3258 44.6163L52.3355 46.9665V51.4821C53.2323 50.5193 53.9762 49.4249 54.5414 48.237Z" fill="black"/>
<path d="M52.6046 49.1299C53.0084 49.1299 53.3358 48.5849 53.3358 47.9127C53.3358 47.2405 53.0084 46.6955 52.6046 46.6955C52.2008 46.6955 51.8734 47.2405 51.8734 47.9127C51.8734 48.5849 52.2008 49.1299 52.6046 49.1299Z" fill="#FDA57D"/>
<path d="M74.5464 92.7876H12.1077V95.6612H74.5464V92.7876Z" fill="#46455B"/>
<path d="M64.5851 98.5348H22.0692V101.408H64.5851V98.5348Z" fill="#46455B"/>
<g opacity="0.5">
<path opacity="0.5" d="M138.592 66.0086H48.9639V153.778H138.592V66.0086Z" fill="url(#paint4_linear)"/>
</g>
<path d="M139.142 60.6839H50.4137V147.102H139.142V60.6839Z" fill="white"/>
<path d="M129.134 70.8616H58.4221V125.72H129.134V70.8616Z" fill="#F2F2F2"/>
<path d="M62.4776 128.359V74.5H132.189V128.359H62.4776Z" stroke="#46455B"/>
<g opacity="0.5">
<path opacity="0.5" d="M100.01 108.106L100.215 107.952L100.509 107.735L114.221 97.5563L109.507 78.7159C109.507 78.7159 109.507 78.6934 109.507 78.6544C109.546 78.0796 109.766 73.6318 107.36 74.4343C105.011 75.2163 105.882 78.5025 106.05 79.0608L106.077 79.1429L109.075 94.9865L99.5453 100.541L98.2226 100.393C99.73 98.3266 100.53 95.8296 100.505 93.2726C100.505 87.3613 96.4768 82.5686 91.5063 82.5686C86.5359 82.5686 82.5082 87.3613 82.5082 93.2726C82.5082 97.7 84.7675 101.501 87.9901 103.125L84.5785 104.831V104.849C83.6009 104.644 79.8915 104.705 81.395 118.31C81.764 121.605 80.9794 124.927 79.1747 127.71L78.234 129.018L101.72 129.161H101.792C101.792 129.161 98.467 123.835 100.01 108.106Z" fill="url(#paint5_linear)"/>
</g>
<path d="M84.9934 105.106C84.9934 105.106 80.1462 103.015 81.5593 117.389C81.943 121.221 81.0108 125.07 78.9159 128.302L78.6181 128.76H83.1244L86.5174 125.168L84.9934 105.106Z" fill="#3AD29F"/>
<path d="M109.199 79.2558C109.199 79.2558 109.199 79.2353 109.199 79.1963L105.81 79.5945L105.834 79.6766L108.774 95.2062L98.693 101.083L99.1037 108.638L113.804 97.7247L109.199 79.2558Z" fill="#3AD29F"/>
<path d="M91.5598 104.018C96.4307 104.018 100.379 99.32 100.379 93.5251C100.379 87.7302 96.4307 83.0325 91.5598 83.0325C86.6889 83.0325 82.7403 87.7302 82.7403 93.5251C82.7403 99.32 86.6889 104.018 91.5598 104.018Z" fill="#FFFF00"/>
<path d="M95.9695 97.0924H89.6702V106.327H95.9695V97.0924Z" fill="#FDA57D"/>
<path d="M91.5598 105.614L89.8797 103.096L84.8394 105.614V109.781C84.8394 109.781 83.0094 113.003 84.5005 116.714C84.0897 122.17 82.9765 129.321 82.9765 129.321L101.649 129.459C101.649 129.459 98.2884 124.075 99.9685 108.126L99.5577 101.411L95.7785 101L91.5598 105.614Z" fill="#3AD29F"/>
<path opacity="0.05" d="M99.5392 100.662L99.9603 101.081L100.379 107.7L99.8904 108.063L99.5392 100.662Z" fill="black"/>
<path opacity="0.05" d="M89.8797 98.5621C90.5369 98.794 90.8224 98.9726 91.5597 98.9726C93.1114 98.9729 94.608 98.398 95.76 97.3593V97.2936H89.8797V98.5621Z" fill="black"/>
<path d="M91.7693 98.7714C95.2483 98.7714 98.0686 95.953 98.0686 92.4763C98.0686 88.9995 95.2483 86.1811 91.7693 86.1811C88.2902 86.1811 85.4699 88.9995 85.4699 92.4763C85.4699 95.953 88.2902 98.7714 91.7693 98.7714Z" fill="#FDA57D"/>
<path d="M98.0706 93.5251C98.4189 93.5251 98.7012 93.0555 98.7012 92.4763C98.7012 91.897 98.4189 91.4274 98.0706 91.4274C97.7224 91.4274 97.4401 91.897 97.4401 92.4763C97.4401 93.0555 97.7224 93.5251 98.0706 93.5251Z" fill="#FDA57D"/>
<path opacity="0.05" d="M86.2689 90.5058V90.8014H97.0827V91.0969H86.121L86.2689 90.5058Z" fill="black"/>
<path d="M97.0211 85.551H86.1005V91.0067H97.0211V85.551Z" fill="#FFFF00"/>
<path d="M107.093 75.0583C104.791 75.826 105.643 79.0464 105.808 79.5945L109.197 79.1963C109.242 78.6318 109.458 74.2722 107.093 75.0583Z" fill="#FDA57D"/>
<g opacity="0.05">
<path opacity="0.05" d="M83.3482 128.575C83.3482 128.575 84.4532 121.423 84.8722 115.968C83.3914 112.273 85.2193 109.034 85.2193 109.034V104.868L89.9207 102.517L89.8078 102.349L84.7695 104.868V109.034C84.7695 109.034 82.9416 112.267 84.4224 115.968C84.0116 121.423 82.8984 128.575 82.8984 128.575L101.57 128.712L83.3482 128.575Z" fill="black"/>
<path opacity="0.05" d="M91.9397 104.857L96.0989 100.286L95.6902 100.241L91.7487 104.572L91.9397 104.857Z" fill="black"/>
</g>
<path opacity="0.05" d="M88.2982 103.367L91.5248 110.793L97.4401 100.652L95.8052 100.442L91.7508 104.492L89.9495 102.468L88.2982 103.367Z" fill="black"/>
<path d="M88.2982 103.141L91.5248 110.57L97.4401 100.428L95.8052 100.216L91.7508 104.268L89.9495 102.242L88.2982 103.141Z" fill="white"/>
<path d="M125.164 134.58H62.725V137.454H125.164V134.58Z" fill="#46455B"/>
<path d="M115.202 140.327H72.6865V143.201H115.202V140.327Z" fill="#46455B"/>
<path d="M131.633 118.222C129.508 118.222 127.431 118.852 125.664 120.033C123.897 121.214 122.52 122.892 121.707 124.855C120.894 126.818 120.681 128.979 121.095 131.063C121.51 133.147 122.533 135.061 124.036 136.564C125.538 138.067 127.453 139.09 129.537 139.505C131.621 139.919 133.782 139.706 135.745 138.893C137.708 138.08 139.386 136.703 140.567 134.936C141.748 133.169 142.378 131.092 142.378 128.967C142.369 126.12 141.235 123.392 139.221 121.378C137.208 119.365 134.48 118.231 131.633 118.222ZM129.428 134.695L123.921 129.189L125.466 127.644L129.433 131.611L137.806 123.238L139.351 124.782L129.428 134.695L129.428 134.695Z" fill="#31E062"/>
<defs>
<linearGradient id="paint0_linear" x1="155.186" y1="125.991" x2="155.186" y2="38.2222" gradientUnits="userSpaceOnUse">
<stop stop-color="#808080" stop-opacity="0.25"/>
<stop offset="0.54" stop-color="#808080" stop-opacity="0.12"/>
<stop offset="1" stop-color="#808080" stop-opacity="0.1"/>
</linearGradient>
<linearGradient id="paint1_linear" x1="23962.7" y1="15256.5" x2="27752.6" y2="15256.5" gradientUnits="userSpaceOnUse">
<stop stop-color="#808080" stop-opacity="0.25"/>
<stop offset="0.54" stop-color="#808080" stop-opacity="0.12"/>
<stop offset="1" stop-color="#808080" stop-opacity="0.1"/>
</linearGradient>
<linearGradient id="paint2_linear" x1="19556" y1="47605.8" x2="19556" y2="10074.8" gradientUnits="userSpaceOnUse">
<stop stop-color="#808080" stop-opacity="0.25"/>
<stop offset="0.54" stop-color="#808080" stop-opacity="0.12"/>
<stop offset="1" stop-color="#808080" stop-opacity="0.1"/>
</linearGradient>
<linearGradient id="paint3_linear" x1="6602.48" y1="21315.2" x2="11305.1" y2="21315.2" gradientUnits="userSpaceOnUse">
<stop stop-color="#808080" stop-opacity="0.25"/>
<stop offset="0.54" stop-color="#808080" stop-opacity="0.12"/>
<stop offset="1" stop-color="#808080" stop-opacity="0.1"/>
</linearGradient>
<linearGradient id="paint4_linear" x1="48729.7" y1="58221" x2="48729.7" y2="20690" gradientUnits="userSpaceOnUse">
<stop stop-color="#808080" stop-opacity="0.25"/>
<stop offset="0.54" stop-color="#808080" stop-opacity="0.12"/>
<stop offset="1" stop-color="#808080" stop-opacity="0.1"/>
</linearGradient>
<linearGradient id="paint5_linear" x1="19025.5" y1="29011.4" x2="25330" y2="29011.4" gradientUnits="userSpaceOnUse">
<stop stop-color="#808080" stop-opacity="0.25"/>
<stop offset="0.54" stop-color="#808080" stop-opacity="0.12"/>
<stop offset="1" stop-color="#808080" stop-opacity="0.1"/>
</linearGradient>
</defs>
</svg>
