<svg width="204" height="112" viewBox="0 0 204 112" fill="none" xmlns="http://www.w3.org/2000/svg">
<path d="M143.109 111.223H48.1771C45.064 111.223 42.0784 109.987 39.8771 107.785C37.6758 105.584 36.4391 102.599 36.4391 99.4855V55.9925C36.4391 55.3609 36.5678 54.7359 36.8173 54.1556C37.0668 53.5754 37.4318 53.0521 37.8902 52.6176L88.1946 4.93317C90.2059 3.02667 92.8717 1.96399 95.6429 1.96399C98.4142 1.96399 101.08 3.02667 103.091 4.93317L151.054 50.3977C152.252 51.5335 153.206 52.9014 153.858 54.418C154.51 55.9347 154.847 57.5683 154.847 59.2192V99.4855C154.847 101.027 154.543 102.553 153.953 103.977C153.363 105.401 152.499 106.695 151.409 107.785C150.319 108.875 149.025 109.74 147.601 110.33C146.177 110.92 144.65 111.223 143.109 111.223Z" fill="#F2F2F2"/>
<path d="M51.1771 108.759C48.1966 108.759 45.3382 107.575 43.2307 105.468C41.1231 103.36 39.9391 100.502 39.9391 97.5215V54.0285C39.9391 53.4648 40.054 52.907 40.2766 52.3891C40.4993 51.8713 40.8251 51.4043 41.2342 51.0165L91.5386 3.33206C93.457 1.5136 95.9996 0.5 98.6429 0.5C101.286 0.5 103.829 1.5136 105.747 3.33206L153.71 48.7966C154.859 49.8856 155.774 51.1973 156.399 52.6515C157.024 54.1058 157.347 55.6722 157.347 57.2552V97.5215C157.347 98.9973 157.056 100.459 156.491 101.822C155.927 103.185 155.099 104.424 154.055 105.468C153.012 106.511 151.773 107.339 150.409 107.904C149.046 108.469 147.585 108.759 146.109 108.759H51.1771Z" stroke="#223260"/>
<path opacity="0.1" d="M36.4391 56.7066H153.86V104.136C153.86 106.015 153.113 107.818 151.784 109.147C150.455 110.477 148.652 111.223 146.772 111.223H43.5269C41.6471 111.223 39.8443 110.477 38.5151 109.147C37.1859 107.818 36.4391 106.015 36.4391 104.136V56.7066Z" fill="black"/>
<path d="M132.724 19.3342H58.3152C54.7483 19.3342 51.8568 22.2257 51.8568 25.7926V100.201C51.8568 103.768 54.7483 106.66 58.3152 106.66H132.724C136.291 106.66 139.182 103.768 139.182 100.201V25.7926C139.182 22.2257 136.291 19.3342 132.724 19.3342Z" fill="#0073B0"/>
<path opacity="0.1" d="M139.182 58.6678V106.66H51.8568V58.6678L95.5196 79.7715L139.182 58.6678Z" fill="black"/>
<path d="M95.5196 82.4849L39.5735 55.4443C39.2275 55.277 38.8446 55.2004 38.4609 55.2215C38.0771 55.2427 37.705 55.3609 37.3794 55.5651C37.0538 55.7694 36.7855 56.053 36.5994 56.3893C36.4134 56.7256 36.3158 57.1037 36.3158 57.488V104.012C36.3158 104.943 36.4991 105.865 36.8553 106.725C37.2115 107.585 37.7336 108.366 38.3918 109.024C39.0499 109.682 39.8313 110.204 40.6912 110.561C41.5511 110.917 42.4728 111.1 43.4035 111.1H147.636C148.566 111.1 149.488 110.917 150.348 110.561C151.208 110.204 151.989 109.682 152.647 109.024C153.306 108.366 153.828 107.585 154.184 106.725C154.54 105.865 154.723 104.943 154.723 104.012V58.285C154.723 57.816 154.604 57.3547 154.377 56.9443C154.15 56.5339 153.823 56.1878 153.425 55.9386C153.028 55.6894 152.574 55.5451 152.106 55.5193C151.637 55.4935 151.17 55.587 150.748 55.7911L95.5196 82.4849Z" fill="#F2F2F2"/>
<path d="M98.9862 77.935L99.2038 78.0402L99.4214 77.935L154.65 51.2413C154.996 51.074 155.379 50.9974 155.762 51.0185C156.146 51.0397 156.518 51.1579 156.844 51.3622C157.17 51.5664 157.438 51.85 157.624 52.1863C157.81 52.5226 157.908 52.9007 157.908 53.285V99.0123C157.908 99.8774 157.737 100.734 157.406 101.533C157.075 102.333 156.59 103.059 155.978 103.671C155.366 104.282 154.64 104.767 153.841 105.099C153.042 105.43 152.185 105.6 151.32 105.6H47.0878C46.2226 105.6 45.366 105.43 44.5667 105.099C43.7675 104.767 43.0412 104.282 42.4295 103.671C41.8178 103.059 41.3325 102.333 41.0015 101.533C40.6704 100.734 40.5 99.8774 40.5 99.0123V52.488C40.5 52.1883 40.5761 51.8936 40.7212 51.6313C40.8662 51.3691 41.0755 51.148 41.3293 50.9887C41.5832 50.8294 41.8734 50.7372 42.1726 50.7208C42.4718 50.7043 42.7703 50.764 43.0402 50.8945L98.9862 77.935Z" stroke="#223260"/>
<path d="M0.0363159 111.1H203.303" stroke="#223260" stroke-miterlimit="10"/>
<path d="M83.8022 27.3514H59.3806V30.8049H83.8022V27.3514Z" fill="#F2F2F2"/>
<path d="M129.932 39.9322H57.4072V41.9056H129.932V39.9322Z" fill="#F2F2F2"/>
<path d="M129.932 46.5926H57.4072V48.566H129.932V46.5926Z" fill="#F2F2F2"/>
<path d="M129.932 53.253H57.4072V55.2265H129.932V53.253Z" fill="#F2F2F2"/>
<path d="M55.4337 30.8417C61.0195 30.8417 65.5477 26.3053 65.5477 20.7093C65.5477 15.1134 61.0195 10.577 55.4337 10.577C49.8479 10.577 45.3197 15.1134 45.3197 20.7093C45.3197 26.3053 49.8479 30.8417 55.4337 30.8417Z" fill="white"/>
<path d="M55.4337 8.85019C53.043 8.85019 50.706 9.55911 48.7183 10.8873C46.7305 12.2155 45.1812 14.1033 44.2664 16.312C43.3515 18.5207 43.1121 20.951 43.5785 23.2958C44.0449 25.6405 45.1961 27.7943 46.8866 29.4847C48.577 31.1752 50.7308 32.3264 53.0756 32.7928C55.4203 33.2592 57.8507 33.0198 60.0594 32.105C62.268 31.1901 64.1558 29.6408 65.484 27.6531C66.8122 25.6653 67.5211 23.3283 67.5211 20.9376C67.5118 17.7347 66.2353 14.6657 63.9704 12.4009C61.7056 10.1361 58.6366 8.85956 55.4337 8.85019ZM52.9523 27.3823L46.7575 21.1875L48.495 19.4499L52.9581 23.913L62.3782 14.4929L64.1157 16.2305L52.9523 27.3823L52.9523 27.3823Z" fill="#31E062"/>
</svg>
