<svg width="150" height="62" viewBox="0 0 150 62" fill="none" xmlns="http://www.w3.org/2000/svg">
<rect y="4.22913" width="53.1662" height="53.1662" rx="5" fill="#0073B0"/>
<path d="M28.9998 48.937V24.1664H23.5623V48.937H28.9998Z" fill="white"/>
<path d="M39.2705 44.1038L23.5623 44.1038L23.5623 49.5412L39.2705 49.5412L39.2705 44.1038Z" fill="white"/>
<path d="M13.8957 11.6874H12.8957V12.6874V44.4058V45.4058H13.8957H19.2425H20.2425V44.4058V35.845H26.5378C30.6903 35.845 34.0968 34.759 36.475 32.6073C38.8673 30.4428 40.0892 27.3174 40.0892 23.517C40.0892 19.8392 38.8581 16.8328 36.4572 14.7621C34.0777 12.71 30.6773 11.6874 26.5378 11.6874H13.8957ZM20.2425 18.4905H26.3112C28.6467 18.4905 30.3037 18.9701 31.3589 19.7959C32.3705 20.5876 32.9689 21.8081 32.9689 23.6529C32.9689 25.5774 32.3621 26.8582 31.3444 27.6857C30.2899 28.5431 28.6384 29.0419 26.3112 29.0419H20.2425V18.4905Z" fill="white" stroke="#0073B0" stroke-width="2"/>
<path d="M74.8804 8.74234C76.8344 8.74234 78.5307 9.06443 79.9693 9.7086C81.4295 10.3528 82.546 11.2761 83.319 12.4785C84.092 13.681 84.4785 15.1089 84.4785 16.7623C84.4785 18.3942 84.092 19.8221 83.319 21.046C82.546 22.2485 81.4295 23.1718 79.9693 23.816C78.5307 24.4601 76.8344 24.7822 74.8804 24.7822H69.7914V31.2884H65.6043V8.74234H74.8804ZM74.6871 21.2393C76.5123 21.2393 77.8973 20.8528 78.842 20.0798C79.7868 19.3068 80.2592 18.2009 80.2592 16.7623C80.2592 15.3236 79.7868 14.2178 78.842 13.4448C77.8973 12.6718 76.5123 12.2853 74.6871 12.2853H69.7914V21.2393H74.6871Z" fill="#0073B0"/>
<path d="M87.0494 8.74234H91.2366V31.2884H87.0494V8.74234Z" fill="#0073B0"/>
<path d="M105 8.74234C106.954 8.74234 108.651 9.06443 110.089 9.7086C111.55 10.3528 112.666 11.2761 113.439 12.4785C114.212 13.681 114.599 15.1089 114.599 16.7623C114.599 18.3942 114.212 19.8221 113.439 21.046C112.666 22.2485 111.55 23.1718 110.089 23.816C108.651 24.4601 106.954 24.7822 105 24.7822H99.9115V31.2884H95.7244V8.74234H105ZM104.807 21.2393C106.632 21.2393 108.017 20.8528 108.962 20.0798C109.907 19.3068 110.379 18.2009 110.379 16.7623C110.379 15.3236 109.907 14.2178 108.962 13.4448C108.017 12.6718 106.632 12.2853 104.807 12.2853H99.9115V21.2393H104.807Z" fill="#0073B0"/>
<path d="M117.17 8.74234H121.357V31.2884H117.17V8.74234Z" fill="#0073B0"/>
<path d="M65.9448 35.8896H67.3527V53.9448H78.4785V55.2147H65.9448V35.8896Z" fill="#666666"/>
<path d="M92.2041 48.3405H79.8084C79.8452 49.4632 80.1305 50.4663 80.6642 51.3497C81.198 52.2147 81.9158 52.8865 82.8176 53.365C83.7379 53.8436 84.7685 54.0828 85.9096 54.0828C86.8483 54.0828 87.7133 53.9172 88.5047 53.5859C89.3145 53.2362 89.9863 52.7301 90.5201 52.0675L91.3207 52.9785C90.6949 53.7331 89.9035 54.3129 88.9464 54.7178C88.0078 55.1227 86.9863 55.3252 85.882 55.3252C84.4464 55.3252 83.1673 55.0123 82.0446 54.3865C80.9219 53.7608 80.0385 52.8957 79.3943 51.7914C78.7685 50.6871 78.4556 49.4264 78.4556 48.0092C78.4556 46.6104 78.7501 45.3589 79.3391 44.2546C79.9464 43.1319 80.7747 42.2577 81.8237 41.6319C82.8728 41.0061 84.0507 40.6933 85.3575 40.6933C86.6642 40.6933 87.8329 41.0061 88.8636 41.6319C89.9127 42.2393 90.7317 43.0951 91.3207 44.1994C91.928 45.3037 92.2317 46.5552 92.2317 47.954L92.2041 48.3405ZM85.3575 41.908C84.3452 41.908 83.4342 42.138 82.6244 42.5982C81.8145 43.0399 81.1612 43.6749 80.6642 44.5031C80.1857 45.3129 79.9096 46.2331 79.836 47.2638H90.879C90.8237 46.2331 90.5477 45.3129 90.0507 44.5031C89.5538 43.6933 88.9004 43.0583 88.0906 42.5982C87.2808 42.138 86.3698 41.908 85.3575 41.908Z" fill="#666666"/>
<path d="M99.5761 40.6933C101.361 40.6933 102.733 41.1534 103.69 42.0736C104.647 42.9755 105.125 44.3098 105.125 46.0767V55.2147H103.8V52.6473C103.34 53.4939 102.668 54.1565 101.785 54.635C100.901 55.0951 99.843 55.3252 98.6099 55.3252C97.0087 55.3252 95.7387 54.9479 94.8001 54.1933C93.8798 53.4387 93.4197 52.4448 93.4197 51.2117C93.4197 50.0154 93.843 49.0491 94.6896 48.3129C95.5547 47.5583 96.9258 47.181 98.8031 47.181H103.745V46.0215C103.745 44.6779 103.377 43.6565 102.641 42.9571C101.923 42.2577 100.864 41.908 99.4657 41.908C98.5087 41.908 97.5884 42.0736 96.705 42.4049C95.8399 42.7362 95.1037 43.1779 94.4964 43.7301L93.8062 42.7362C94.524 42.092 95.389 41.5951 96.4013 41.2454C97.4136 40.8773 98.4718 40.6933 99.5761 40.6933ZM98.8031 54.1933C99.9995 54.1933 101.012 53.9172 101.84 53.365C102.687 52.8129 103.322 52.0123 103.745 50.9632V48.2577H98.8307C97.4136 48.2577 96.3829 48.5154 95.7387 49.0307C95.113 49.546 94.8001 50.2546 94.8001 51.1565C94.8001 52.0951 95.1498 52.8405 95.8491 53.3927C96.5485 53.9264 97.5332 54.1933 98.8031 54.1933Z" fill="#666666"/>
<path d="M122.269 34.7301V55.2147H120.916V51.819C120.346 52.9417 119.545 53.8068 118.514 54.4141C117.484 55.0215 116.315 55.3252 115.008 55.3252C113.665 55.3252 112.45 55.0123 111.364 54.3865C110.278 53.7608 109.422 52.8957 108.797 51.7914C108.189 50.6871 107.886 49.4264 107.886 48.0092C107.886 46.592 108.189 45.3313 108.797 44.227C109.422 43.1043 110.278 42.2393 111.364 41.6319C112.45 41.0061 113.665 40.6933 115.008 40.6933C116.297 40.6933 117.447 40.9969 118.459 41.6043C119.49 42.2117 120.3 43.0583 120.889 44.1442V34.7301H122.269ZM115.091 54.0828C116.195 54.0828 117.18 53.8252 118.045 53.3098C118.928 52.7945 119.619 52.0767 120.116 51.1565C120.631 50.2362 120.889 49.1871 120.889 48.0092C120.889 46.8313 120.631 45.7822 120.116 44.862C119.619 43.9417 118.928 43.2239 118.045 42.7086C117.18 42.1933 116.195 41.9356 115.091 41.9356C113.987 41.9356 112.993 42.1933 112.109 42.7086C111.244 43.2239 110.554 43.9417 110.039 44.862C109.542 45.7822 109.294 46.8313 109.294 48.0092C109.294 49.1871 109.542 50.2362 110.039 51.1565C110.554 52.0767 111.244 52.7945 112.109 53.3098C112.993 53.8252 113.987 54.0828 115.091 54.0828Z" fill="#666666"/>
<path d="M130.353 55.3252C129.193 55.3252 128.089 55.1503 127.04 54.8006C125.991 54.4509 125.172 54.0092 124.583 53.4755L125.218 52.3712C125.807 52.8681 126.561 53.2822 127.481 53.6135C128.42 53.9448 129.395 54.1104 130.408 54.1104C131.862 54.1104 132.929 53.8712 133.61 53.3927C134.31 52.9141 134.659 52.2515 134.659 51.4049C134.659 50.7976 134.466 50.319 134.08 49.9693C133.711 49.6196 133.251 49.362 132.699 49.1963C132.147 49.0307 131.383 48.8558 130.408 48.6718C129.267 48.4693 128.346 48.2485 127.647 48.0092C126.948 47.77 126.349 47.3834 125.853 46.8497C125.356 46.316 125.107 45.5798 125.107 44.6411C125.107 43.5 125.576 42.5614 126.515 41.8252C127.472 41.0706 128.825 40.6933 130.573 40.6933C131.494 40.6933 132.405 40.8221 133.307 41.0798C134.208 41.3374 134.945 41.6779 135.515 42.1012L134.88 43.2055C134.291 42.7822 133.619 42.4601 132.865 42.2393C132.11 42.0184 131.337 41.908 130.546 41.908C129.202 41.908 128.19 42.1565 127.509 42.6534C126.828 43.1503 126.487 43.8037 126.487 44.6135C126.487 45.2577 126.681 45.7638 127.067 46.1319C127.454 46.4816 127.923 46.7485 128.475 46.9325C129.046 47.0982 129.837 47.2822 130.849 47.4847C131.972 47.6871 132.874 47.908 133.555 48.1473C134.254 48.3681 134.843 48.7362 135.322 49.2515C135.8 49.7669 136.04 50.4755 136.04 51.3773C136.04 52.5736 135.543 53.5307 134.549 54.2485C133.555 54.9663 132.156 55.3252 130.353 55.3252Z" fill="#666666"/>
</svg>
