<svg width="81" height="32" viewBox="0 0 81 32" fill="none" xmlns="http://www.w3.org/2000/svg">
<rect width="32" height="32" rx="3" fill="#2C2C2C"/>
<path fill-rule="evenodd" clip-rule="evenodd" d="M8.36359 24.1819V5.09094H15.9727C20.7727 5.09094 23.5272 7.46367 23.5272 11.6091C23.5272 15.4531 21.3352 17.8647 17.4545 18.3405V18.3405C16.985 18.3981 16.4907 18.4273 15.9727 18.4273H14.1817V18.4273H11.5818V24.1819H8.36359ZM15.8363 7.98185H11.5818V15.5364H15.8363C18.7818 15.5364 20.4454 14.2819 20.4454 11.6909C20.4454 9.18185 18.7818 7.98185 15.8363 7.98185ZM14.1817 27.2728V19.5182H15.9727C16.4828 19.5182 16.9773 19.4919 17.4545 19.4387V24H23.6363V27.2728H17.4545V27.2728H14.1817ZM15.8363 14.4455H14.1817V12.3637H17.4545V14.2631C17.0159 14.3787 16.4811 14.4455 15.8363 14.4455Z" fill="#666666"/>
<path d="M42.7946 2C44.0153 2 45.0749 2.20282 45.9736 2.60846C46.8858 3.01409 47.5833 3.5955 48.0661 4.35269C48.549 5.10988 48.7905 6.00904 48.7905 7.05018C48.7905 8.07779 48.549 8.97695 48.0661 9.74766C47.5833 10.5049 46.8858 11.0863 45.9736 11.4919C45.0749 11.8975 44.0153 12.1004 42.7946 12.1004H39.6156V16.1973H37V2H42.7946ZM42.6739 9.86935C43.8141 9.86935 44.6792 9.62597 45.2694 9.13921C45.8596 8.65244 46.1547 7.9561 46.1547 7.05018C46.1547 6.14426 45.8596 5.44791 45.2694 4.96115C44.6792 4.47438 43.8141 4.231 42.6739 4.231H39.6156V9.86935H42.6739Z" fill="#666666"/>
<path d="M50.3965 2H53.0121V16.1973H50.3965V2Z" fill="#666666"/>
<path d="M61.6102 2C62.8309 2 63.8905 2.20282 64.7892 2.60846C65.7013 3.01409 66.3988 3.5955 66.8817 4.35269C67.3646 5.10988 67.6061 6.00904 67.6061 7.05018C67.6061 8.07779 67.3646 8.97695 66.8817 9.74766C66.3988 10.5049 65.7013 11.0863 64.7892 11.4919C63.8905 11.8975 62.8309 12.1004 61.6102 12.1004H58.4312V16.1973H55.8156V2H61.6102ZM61.4895 9.86935C62.6296 9.86935 63.4948 9.62597 64.085 9.13921C64.6752 8.65244 64.9703 7.9561 64.9703 7.05018C64.9703 6.14426 64.6752 5.44791 64.085 4.96115C63.4948 4.47438 62.6296 4.231 61.4895 4.231H58.4312V9.86935H61.4895Z" fill="#666666"/>
<path d="M69.2121 2H71.8277V16.1973H69.2121V2Z" fill="#666666"/>
<path d="M37.2127 19.0947H38.0922V30.4641H45.0424V31.2638H37.2127V19.0947Z" fill="#666666"/>
<path d="M53.6166 26.9351H45.8731C45.8961 27.642 46.0743 28.2737 46.4077 28.83C46.7412 29.3747 47.1896 29.7977 47.7529 30.099C48.3278 30.4004 48.9716 30.551 49.6845 30.551C50.2708 30.551 50.8112 30.4467 51.3056 30.2381C51.8115 30.0179 52.2311 29.6992 52.5645 29.282L53.0647 29.8557C52.6738 30.3308 52.1794 30.6959 51.5815 30.9509C50.9952 31.2058 50.3571 31.3333 49.6672 31.3333C48.7704 31.3333 47.9714 31.1363 47.27 30.7423C46.5687 30.3482 46.0168 29.8035 45.6144 29.1081C45.2235 28.4127 45.0281 27.6189 45.0281 26.7265C45.0281 25.8456 45.212 25.0576 45.5799 24.3622C45.9594 23.6552 46.4767 23.1047 47.1321 22.7107C47.7874 22.3166 48.5233 22.1196 49.3396 22.1196C50.1559 22.1196 50.8859 22.3166 51.5298 22.7107C52.1851 23.0931 52.6968 23.632 53.0647 24.3274C53.4441 25.0228 53.6338 25.8109 53.6338 26.6917L53.6166 26.9351ZM49.3396 22.8845C48.7072 22.8845 48.1381 23.0294 47.6322 23.3191C47.1263 23.5973 46.7182 23.9971 46.4077 24.5186C46.1088 25.0286 45.9364 25.6081 45.8904 26.2571H52.7887C52.7543 25.6081 52.5818 25.0286 52.2714 24.5186C51.9609 24.0087 51.5528 23.6088 51.0469 23.3191C50.541 23.0294 49.9719 22.8845 49.3396 22.8845Z" fill="#666666"/>
<path d="M58.2218 22.1196C59.337 22.1196 60.1935 22.4093 60.7914 22.9888C61.3893 23.5567 61.6882 24.3969 61.6882 25.5095V31.2638H60.8604V29.647C60.573 30.1802 60.1533 30.5974 59.6014 30.8987C59.0496 31.1885 58.3885 31.3333 57.6181 31.3333C56.6179 31.3333 55.8246 31.0957 55.2382 30.6206C54.6633 30.1454 54.3759 29.5196 54.3759 28.7431C54.3759 27.9897 54.6403 27.3813 55.1692 26.9177C55.7096 26.4425 56.5661 26.2049 57.7389 26.2049H60.8259V25.4748C60.8259 24.6287 60.5959 23.9855 60.1361 23.5451C59.6877 23.1047 59.0266 22.8845 58.1528 22.8845C57.5549 22.8845 56.98 22.9888 56.4282 23.1974C55.8878 23.406 55.4279 23.6842 55.0485 24.0319L54.6174 23.406C55.0657 23.0004 55.6061 22.6875 56.2385 22.4673C56.8708 22.2355 57.5319 22.1196 58.2218 22.1196ZM57.7389 30.6206C58.4862 30.6206 59.1185 30.4467 59.6359 30.099C60.1648 29.7513 60.5615 29.2472 60.8259 28.5866V26.8829H57.7561C56.8708 26.8829 56.227 27.0452 55.8246 27.3697C55.4337 27.6942 55.2382 28.1404 55.2382 28.7083C55.2382 29.2994 55.4567 29.7687 55.8936 30.1164C56.3305 30.4525 56.9456 30.6206 57.7389 30.6206Z" fill="#666666"/>
<path d="M72.3976 18.3645V31.2638H71.5526V29.1255C71.1962 29.8325 70.696 30.3772 70.0522 30.7596C69.4083 31.1421 68.6783 31.3333 67.862 31.3333C67.0227 31.3333 66.2638 31.1363 65.5855 30.7423C64.9072 30.3482 64.3725 29.8035 63.9816 29.1081C63.6022 28.4127 63.4125 27.6189 63.4125 26.7265C63.4125 25.8341 63.6022 25.0402 63.9816 24.3448C64.3725 23.6378 64.9072 23.0931 65.5855 22.7107C66.2638 22.3166 67.0227 22.1196 67.862 22.1196C68.6668 22.1196 69.3854 22.3108 70.0177 22.6933C70.6616 23.0757 71.1674 23.6089 71.5354 24.2926V18.3645H72.3976ZM67.9137 30.551C68.6035 30.551 69.2186 30.3888 69.759 30.0643C70.3109 29.7398 70.742 29.2878 71.0525 28.7083C71.3744 28.1288 71.5354 27.4682 71.5354 26.7265C71.5354 25.9847 71.3744 25.3241 71.0525 24.7446C70.742 24.1652 70.3109 23.7132 69.759 23.3886C69.2186 23.0641 68.6035 22.9019 67.9137 22.9019C67.2239 22.9019 66.603 23.0641 66.0511 23.3886C65.5108 23.7132 65.0796 24.1652 64.7577 24.7446C64.4473 25.3241 64.2921 25.9847 64.2921 26.7265C64.2921 27.4682 64.4473 28.1288 64.7577 28.7083C65.0796 29.2878 65.5108 29.7398 66.0511 30.0643C66.603 30.3888 67.2239 30.551 67.9137 30.551Z" fill="#666666"/>
<path d="M77.4473 31.3333C76.723 31.3333 76.0332 31.2232 75.3778 31.003C74.7225 30.7828 74.2108 30.5047 73.8429 30.1686L74.2396 29.4732C74.6075 29.7861 75.0789 30.0469 75.6538 30.2555C76.2401 30.4641 76.8495 30.5684 77.4818 30.5684C78.3901 30.5684 79.057 30.4178 79.4824 30.1164C79.9193 29.8151 80.1377 29.3979 80.1377 28.8647C80.1377 28.4823 80.017 28.181 79.7755 27.9608C79.5456 27.7406 79.2582 27.5783 78.9132 27.474C78.5683 27.3697 78.0912 27.2596 77.4818 27.1437C76.769 27.0162 76.1941 26.8771 75.7572 26.7265C75.3203 26.5758 74.9467 26.3324 74.6362 25.9963C74.3258 25.6602 74.1706 25.1966 74.1706 24.6056C74.1706 23.887 74.4638 23.2959 75.0502 22.8323C75.648 22.3572 76.4931 22.1196 77.5853 22.1196C78.1602 22.1196 78.7293 22.2007 79.2926 22.363C79.856 22.5252 80.3159 22.7396 80.6723 23.0062L80.2757 23.7016C79.9078 23.435 79.4881 23.2322 79.0167 23.0931C78.5453 22.954 78.0624 22.8845 77.5681 22.8845C76.7288 22.8845 76.0964 23.041 75.671 23.3539C75.2456 23.6668 75.0329 24.0782 75.0329 24.5882C75.0329 24.9938 75.1536 25.3125 75.3951 25.5443C75.6365 25.7645 75.9297 25.9326 76.2746 26.0485C76.631 26.1528 77.1254 26.2687 77.7578 26.3962C78.4591 26.5236 79.0225 26.6627 79.4479 26.8134C79.8848 26.9525 80.2527 27.1842 80.5516 27.5088C80.8505 27.8333 81 28.2795 81 28.8474C81 29.6007 80.6896 30.2033 80.0687 30.6553C79.4479 31.1073 78.5741 31.3333 77.4473 31.3333Z" fill="#666666"/>
</svg>
