<svg width="25" height="25" viewBox="0 0 25 25" fill="none" xmlns="http://www.w3.org/2000/svg">
<path fill-rule="evenodd" clip-rule="evenodd" d="M0 12.5C0 5.5971 5.5971 0 12.5 0C19.4029 0 25 5.5971 25 12.5C25 19.4029 19.4029 25 12.5 25C5.5971 25 0 19.4029 0 12.5ZM18.3079 8.76216C18.5096 8.98377 18.6547 9.25961 18.7287 9.5621C19 10.6752 19 13 19 13C19 13 19 15.3248 18.7287 16.4379C18.5792 17.0525 18.1396 17.5366 17.5796 17.7006C16.5654 18 12.5 18 12.5 18C12.5 18 8.4346 18 7.42042 17.7006C6.86183 17.5366 6.42076 17.0525 6.27132 16.4379C6 15.3248 6 13 6 13C6 13 6 10.6752 6.27132 9.56051C6.34508 9.25789 6.49009 8.9819 6.69179 8.76025C6.8935 8.53861 7.14478 8.37911 7.42042 8.29777C8.4346 8 12.5 8 12.5 8C12.5 8 16.5654 8 17.5796 8.29936C17.8551 8.38096 18.1063 8.54055 18.3079 8.76216ZM14.5748 12.9841L11.2087 10.8662V15.1338L14.5748 12.9841Z" fill="#333333"/>
</svg>
